{"title":"American.Pickers.S07E16.Red.Barn.Black.Keys.HDTV.XviD-AFG","uid":11891444,"size":443427794,"categoryP":"other","categoryS":"other","magnet":"?xt=urn:btih:98b039c7d8d0c8798d7546f126a8cbae3261f70f&amp;dn=American.Pickers.S07E16.Red.Barn.Black.Keys.HDTV.XviD-AFG&amp;tr=udp%3A%2F%2Ftracker.openbittorrent.com%3A80&amp;tr=udp%3A%2F%2Fopen.demonii.com%3A1337&amp;tr=udp%3A%2F%2Ftracker.coppersurfer.tk%3A6969&amp;tr=udp%3A%2F%2Fexodus.desync.com%3A6969","seeders":7,"leechers":1,"uploader":"toots2boots","files":2,"time":1431006480,"description":"Mike Wolfe and Frank Fritz look for hidden memorabilia by digging through junk piles, abandoned barns and neglected garages. Whether tracking down a one-of-a-kind Ferris wheel or sizing up a vintage Harley-Davidson, they must be prepared to verify an object's history and judge its value. Sometimes they make a buck; and sometimes they walk away with little more than the history of an item.\n\nGeneral\nComplete name                            : G:Torrent uploadAmerican.Pickers.S07E16.Red.Barn.Black.Keys.HDTV.XviD-AFGAmerican.Pickers.S07E16.Red.Barn.Black.Keys.HDTV.XviD-AFG.avi\nFormat                                   : AVI\nFormat/Info                              : Audio Video Interleave\nFile size                                : 423 MiB\nDuration                                 : 41mn 59s\nOverall bit rate mode                    : Variable\nOverall bit rate                         : 1 408 Kbps\n\nVideo\nID                                       : 0\nFormat                                   : MPEG-4 Visual\nFormat profile                           : Advanced Simple@L5\nFormat settings, BVOP                    : 2\nFormat settings, QPel                    : No\nFormat settings, GMC                     : No warppoints\nFormat settings, Matrix                  : Default (H.263)\nCodec ID                                 : XVID\nCodec ID/Hint                            : XviD\nDuration                                 : 41mn 59s\nBit rate                                 : 1 266 Kbps\nWidth                                    : 640 pixels\nHeight                                   : 360 pixels\nDisplay aspect ratio                     : 16:9\nFrame rate                               : 29.970 fps\nColor space                              : YUV\nChroma subsampling                       : 4:2:0\nBit depth                                : 8 bits\nScan type                                : Progressive\nCompression mode                         : Lossy\nBits/(Pixel*Frame)                       : 0.183\nStream size                              : 380 MiB (90%)\nWriting library                          : XviD 64\n\nAudio\nID                                       : 1\nFormat                                   : MPEG Audio\nFormat version                           : Version 1\nFormat profile                           : Layer 3\nMode                                     : Joint stereo\nMode extension                           : MS Stereo\nCodec ID                                 : 55\nCodec ID/Hint                            : MP3\nDuration                                 : 41mn 59s\nBit rate mode                            : Variable\nBit rate                                 : 128 Kbps\nChannel(s)                               : 2 channels\nSampling rate                            : 48.0 KHz\nCompression mode                         : Lossy\nStream size                              : 38.4 MiB (9%)\nAlignment                                : Aligned on interleaves\nInterleave, duration                     : 24 ms (0.72 video frame)\nInterleave, preload duration             : 178 ms\nTitle                                    : American.Pickers.S07E16.Red.Barn.Black.Keys.HDTV.XviD-AFG_360p.audio","torrent":{"xt":"urn:btih:98b039c7d8d0c8798d7546f126a8cbae3261f70f","amp;dn":"American.Pickers.S07E16.Red.Barn.Black.Keys.HDTV.XviD-AFG","amp;tr":["udp%3A%2F%2Ftracker.openbittorrent.com%3A80","udp%3A%2F%2Fopen.demonii.com%3A1337","udp%3A%2F%2Ftracker.coppersurfer.tk%3A6969","udp%3A%2F%2Fexodus.desync.com%3A6969"],"infoHash":"98b039c7d8d0c8798d7546f126a8cbae3261f70f","infoHashBuffer":{"type":"Buffer","data":[152,176,57,199,216,208,200,121,141,117,70,241,38,168,203,174,50,97,247,15]},"announce":[],"urlList":[]}}